<?xml version="1.0" encoding="utf-8"?>
<!-- Generator: Adobe Illustrator 16.0.0, SVG Export Plug-In . SVG Version: 6.00 Build 0)  -->
<!DOCTYPE svg PUBLIC "-//W3C//DTD SVG 1.1//EN" "http://www.w3.org/Graphics/SVG/1.1/DTD/svg11.dtd">
<svg version="1.1" id="Layer_5" xmlns="http://www.w3.org/2000/svg" xmlns:xlink="http://www.w3.org/1999/xlink" x="0px" y="0px"
	 width="512px" height="512px" viewBox="0 0 512 512" enable-background="new 0 0 512 512" xml:space="preserve">
<g>
	<path d="M456,276.24V119.36c27.096-3.904,48-27.208,48-55.36c0-30.872-25.12-56-56-56c-30.881,0-56,25.128-56,56H8v320h240.408
		c4.159,66.849,59.72,120,127.592,120c70.575,0,128-57.424,128-128C504,335.688,485.224,299.72,456,276.24z M448,24
		c22.056,0,40,17.944,40,40c0,22.057-17.944,40-40,40c-22.057,0-40-17.943-40-40C408,41.944,425.944,24,448,24z M248.408,368H24V80
		H394.36c1.912,6.384,4.952,12.265,8.856,17.48l-48.929,48.928c-3.136-1.504-6.592-2.408-10.288-2.408
		c-3.695,0-7.151,0.904-10.279,2.408l-16.12-16.12c1.496-3.136,2.399-6.592,2.399-10.288c0-13.231-10.768-24-23.999-24
		c-13.232,0-24,10.769-24,24c0,3.696,0.903,7.152,2.407,10.28l-40.119,40.12c-3.137-1.496-6.593-2.4-10.288-2.4
		c-13.232,0-24,10.769-24,24c0,13.232,10.768,24,24,24c13.231,0,24-10.768,24-24c0-3.695-0.904-7.151-2.408-10.279l40.12-40.12
		C288.848,143.096,292.304,144,296,144c3.695,0,7.151-0.903,10.279-2.408l16.12,16.12c-1.496,3.137-2.4,6.593-2.4,10.288
		c0,13.232,10.769,24,24,24C357.232,192,368,181.232,368,168c0-3.695-0.904-7.151-2.408-10.279l48.936-48.929
		c7.32,5.488,16.008,9.208,25.473,10.576v145.96C421.144,254.376,399.327,248,376,248c-38.24,0-72.528,16.944-96,43.624V256h-48v96
		h18.336C249.344,357.224,248.744,362.576,248.408,368z M352,168c0,4.416-3.593,8-8,8c-4.408,0-8-3.584-8-8s3.592-8,8-8
		C348.407,160,352,163.584,352,168z M304,120c0,4.416-3.593,8-8,8c-4.408,0-8-3.584-8-8s3.592-8,8-8
		C300.407,112,304,115.584,304,120z M232,192c0,4.416-3.592,8-8,8s-8-3.584-8-8s3.592-8,8-8S232,187.584,232,192z M248,336v-64h16
		v42.168c-3.832,6.912-7,14.217-9.513,21.832H248z M477.768,422.429c-1.021,3.058-2.697,5.829-4.851,8.162
		c-0.429,0.942-0.92,1.852-1.47,2.722c-0.73,1.915-1.715,3.714-2.919,5.347l0.175,0.101C448.544,468.456,414.512,488,376,488
		c-36.964,0-69.793-18.01-90.197-45.713c-3.296-2.898-5.723-6.742-6.896-11.061c-1.5-1.908-2.702-4.056-3.527-6.372l-0.003,0.002
		C268.16,410.072,264,393.528,264,376c0-58.971,45.845-107.322,103.752-111.571c1.041-0.182,2.104-0.288,3.186-0.315
		c2.082-0.656,4.286-1.015,6.563-1.015c2.703,0,5.307,0.501,7.723,1.411C442.667,269.227,488,317.36,488,376
		C488,392.576,484.276,408.27,477.768,422.429z"/>
	<path d="M40,96h16v16H40V96z"/>
	<path d="M72,96h112v16H72V96z"/>
	<path d="M40,128h16v16H40V128z"/>
	<path d="M72,128h112v16H72V128z"/>
	<path d="M40,160h16v16H40V160z"/>
	<path d="M72,160h112v16H72V160z"/>
	<path d="M40,192h16v16H40V192z"/>
	<path d="M72,192h112v16H72V192z"/>
	<path d="M40,352h48v-80H40V352z M56,288h16v48H56V288z"/>
	<path d="M104,352h48v-64h-48V352z M120,304h16v32h-16V304z"/>
	<path d="M168,352h48V224h-48V352z M184,240h16v96h-16V240z"/>
</g>
<g>
	<g>
		<path d="M480.463,304.703c-0.003-0.083-0.013-0.164-0.027-0.245c-0.316-0.453-0.706-0.844-1.033-1.289
			c-2.371-3.229-4.881-6.338-7.531-9.326c-0.725-0.815-1.451-1.624-2.194-2.422c-2.729-2.921-5.59-5.707-8.583-8.355
			c-0.553-0.49-1.071-0.999-1.624-1.479c-7.378-6.319-15.458-11.774-24.078-16.258c-0.345-0.182-0.709-0.335-1.062-0.516
			c-3.839-1.952-7.776-3.705-11.795-5.253c-0.906-0.327-1.732-0.636-2.594-0.908c-3.575-1.288-7.205-2.417-10.887-3.385
			c-1.089-0.289-2.178-0.589-3.284-0.843c-3.63-0.843-7.259-1.488-10.969-2.015c-1.126-0.163-2.231-0.381-3.366-0.518
			c-9.558-1.161-19.22-1.161-28.777,0c-1.135,0.137-2.241,0.354-3.367,0.518c-3.71,0.526-7.375,1.172-10.969,2.015
			c-1.106,0.253-2.195,0.554-3.284,0.843c-3.706,0.967-7.336,2.095-10.886,3.385c-0.907,0.308-1.734,0.618-2.596,0.908
			c-4.017,1.548-7.955,3.3-11.794,5.253c-0.353,0.181-0.717,0.334-1.062,0.516c-8.648,4.477-16.756,9.932-24.159,16.258
			c-0.554,0.48-1.071,0.989-1.624,1.479c-3.025,2.661-5.885,5.446-8.583,8.355c-0.743,0.798-1.471,1.606-2.194,2.422
			c-2.656,2.981-5.166,6.091-7.53,9.326c-0.328,0.444-0.717,0.836-1.035,1.288c-0.041,0.079-0.079,0.161-0.108,0.245
			c-31.292,43.854-31.292,102.738,0,146.593c0.029,0.083,0.066,0.165,0.108,0.244c0.318,0.453,0.707,0.844,1.035,1.288
			c2.364,3.229,4.874,6.338,7.53,9.327c0.724,0.815,1.451,1.624,2.194,2.422c2.733,2.921,5.595,5.706,8.583,8.355
			c0.553,0.49,1.07,0.998,1.624,1.479c7.377,6.319,15.458,11.775,24.077,16.256c0.345,0.183,0.709,0.336,1.062,0.518
			c3.839,1.952,7.777,3.704,11.795,5.253c0.907,0.327,1.733,0.636,2.596,0.908c3.573,1.289,7.203,2.417,10.886,3.384
			c1.088,0.29,2.177,0.591,3.283,0.844c3.63,0.844,7.258,1.487,10.97,2.015c1.124,0.163,2.23,0.38,3.366,0.517
			c9.557,1.162,19.22,1.162,28.777,0c1.134-0.137,2.24-0.354,3.366-0.517c3.71-0.527,7.376-1.171,10.969-2.015
			c1.106-0.253,2.195-0.554,3.284-0.844c3.714-0.967,7.343-2.095,10.886-3.384c0.909-0.309,1.734-0.618,2.596-0.908
			c4.018-1.549,7.955-3.3,11.795-5.253c0.353-0.182,0.716-0.334,1.062-0.518c8.619-4.48,16.699-9.937,24.077-16.256
			c0.553-0.481,1.071-0.989,1.624-1.479c3.025-2.656,5.885-5.441,8.582-8.355c0.744-0.798,1.472-1.606,2.195-2.422
			c2.655-2.989,5.165-6.098,7.531-9.327c0.326-0.444,0.716-0.835,1.033-1.288c0.042-0.079,0.079-0.161,0.109-0.244
			C511.755,407.44,511.755,348.557,480.463,304.703z M470.113,321.868c8.675,14.29,13.916,30.398,15.304,47.059h-54.343
			c-0.666-10.811-2.367-21.531-5.081-32.017C441.344,334.036,456.202,328.97,470.113,321.868z M400.09,271.634
			c0.509,0.119,0.998,0.282,1.507,0.399c3.247,0.762,6.469,1.634,9.616,2.723c0.482,0.162,0.953,0.353,1.426,0.525
			c3.121,1.089,6.195,2.295,9.207,3.629c0.527,0.246,1.044,0.519,1.57,0.762c2.886,1.374,5.703,2.859,8.456,4.456l1.814,1.098
			c2.611,1.596,5.153,3.305,7.621,5.126c0.635,0.462,1.27,0.906,1.896,1.414c2.418,1.815,4.734,3.76,6.949,5.835
			c0.579,0.526,1.18,1.042,1.75,1.587c2.323,2.205,4.535,4.536,6.679,6.949c0.271,0.317,0.561,0.607,0.833,0.908
			c-12.283,5.854-25.297,10.035-38.693,12.428c-6.206-17.059-14.403-33.327-24.422-48.463
			C397.56,271.235,398.848,271.361,400.09,271.634z M341.047,368.927c0.717-9.816,2.388-19.54,4.99-29.032
			c10.279,1.222,20.623,1.827,30.974,1.814c10.361-0.003,20.714-0.624,31-1.859c2.6,9.507,4.262,19.246,4.962,29.077H341.047z
			 M412.973,387.07c-0.714,9.817-2.386,19.541-4.989,29.033c-10.279-1.222-20.621-1.826-30.973-1.814
			c-10.361-0.012-20.712,0.594-31.002,1.814c-2.595-9.492-4.257-19.216-4.962-29.033H412.973z M377.01,275.047
			c10.325,14.632,18.816,30.477,25.284,47.176c-8.397,0.893-16.838,1.34-25.284,1.343c-8.437-0.01-16.867-0.461-25.257-1.353
			C358.231,305.525,366.711,289.685,377.01,275.047z M295.451,306.129c2.13-2.415,4.354-4.746,6.675-6.951
			c0.572-0.543,1.171-1.062,1.752-1.588c2.238-2.038,4.554-3.981,6.949-5.832c0.626-0.481,1.261-0.907,1.896-1.416
			c2.468-1.814,5.008-3.523,7.622-5.126l1.813-1.098c2.752-1.609,5.572-3.094,8.455-4.455c0.527-0.245,1.045-0.519,1.57-0.762
			c3.014-1.361,6.09-2.568,9.209-3.63c0.472-0.171,0.907-0.362,1.426-0.525c3.146-1.053,6.35-1.925,9.616-2.723
			c0.507-0.117,0.997-0.28,1.515-0.39c1.242-0.273,2.531-0.399,3.791-0.626c-10.023,15.141-18.223,31.41-24.432,48.474
			c-13.395-2.395-26.408-6.574-38.693-12.429C294.888,306.736,295.179,306.446,295.451,306.129z M283.91,321.868
			c13.905,7.101,28.762,12.167,44.11,15.042c-2.711,10.485-4.409,21.207-5.071,32.017h-54.345
			C269.994,352.266,275.234,336.158,283.91,321.868z M283.91,434.13c-8.678-14.289-13.916-30.397-15.306-47.06h54.345
			c0.664,10.813,2.365,21.532,5.08,32.018C312.678,421.962,297.821,427.028,283.91,434.13z M353.931,484.363
			c-0.509-0.118-0.999-0.28-1.507-0.399c-3.247-0.761-6.469-1.633-9.617-2.722c-0.48-0.162-0.951-0.353-1.424-0.525
			c-3.121-1.089-6.196-2.295-9.208-3.629c-0.526-0.246-1.045-0.519-1.569-0.764c-2.887-1.372-5.705-2.857-8.455-4.454l-1.815-1.097
			c-2.612-1.597-5.152-3.306-7.62-5.127c-0.635-0.462-1.27-0.906-1.896-1.414c-2.42-1.815-4.737-3.76-6.949-5.835
			c-0.58-0.526-1.18-1.042-1.751-1.588c-2.323-2.204-4.537-4.535-6.678-6.948c-0.272-0.317-0.563-0.607-0.836-0.908
			c12.285-5.854,25.3-10.034,38.695-12.429c6.205,17.06,14.403,33.328,24.422,48.464
			C356.461,484.762,355.173,484.636,353.931,484.363z M377.01,480.952c-10.324-14.634-18.814-30.478-25.284-47.177
			c16.802-1.808,33.75-1.808,50.552,0l-0.011,0.01C395.791,450.472,387.311,466.312,377.01,480.952z M458.572,449.87
			c-2.133,2.414-4.354,4.745-6.678,6.949c-0.57,0.544-1.171,1.063-1.751,1.588c-2.237,2.044-4.554,3.99-6.949,5.833
			c-0.627,0.48-1.262,0.954-1.896,1.416c-2.467,1.814-5.008,3.523-7.619,5.126l-1.816,1.098c-2.745,1.604-5.563,3.087-8.454,4.455
			c-0.525,0.244-1.044,0.518-1.57,0.763c-3.011,1.359-6.087,2.567-9.209,3.628c-0.471,0.172-0.906,0.363-1.423,0.526
			c-3.148,1.054-6.351,1.925-9.617,2.724c-0.508,0.116-0.998,0.279-1.515,0.389c-1.243,0.273-2.533,0.398-3.793,0.626
			c10.02-15.137,18.218-31.405,24.423-48.464c13.396,2.395,26.408,6.574,38.693,12.429
			C459.134,449.261,458.844,449.552,458.572,449.87z M470.113,434.13c-13.908-7.101-28.763-12.166-44.11-15.042
			c2.71-10.485,4.409-21.206,5.071-32.018h54.343C484.028,403.731,478.787,419.84,470.113,434.13z"/>
	</g>
</g>
</svg>
