<?xml version="1.0" encoding="utf-8"?>
<!-- Generator: Adobe Illustrator 16.0.0, SVG Export Plug-In . SVG Version: 6.00 Build 0)  -->
<!DOCTYPE svg PUBLIC "-//W3C//DTD SVG 1.1//EN" "http://www.w3.org/Graphics/SVG/1.1/DTD/svg11.dtd">
<svg version="1.1" id="Layer_3" xmlns="http://www.w3.org/2000/svg" xmlns:xlink="http://www.w3.org/1999/xlink" x="0px" y="0px"
	 width="512px" height="512px" viewBox="0 0 512 512" enable-background="new 0 0 512 512" xml:space="preserve">
<g>
	<path d="M496,8H16c-4.424,0-8,3.584-8,8v352c0,4.416,3.576,8,8,8h208v33.433c-45.128,4.088-96,18.504-96,46.567
		c0,31.513,64.392,48,128,48c63.607,0,128-16.487,128-48c0-28.063-50.872-42.479-96-46.567V376h208c4.424,0,8-3.584,8-8V16
		C504,11.584,500.424,8,496,8z M488,24v288h-8V40c0-4.416-3.576-8-8-8H40c-4.424,0-8,3.584-8,8v272h-8V24H488z M464,312H48V48h416
		V312z M368,456c0,13.049-43.633,32-112,32c-68.368,0-112-18.951-112-32c0-9.88,27.912-25.615,80.271-30.512
		C225.672,436.089,241.24,440,256,440c14.76,0,30.328-3.911,31.728-14.512C340.088,430.385,368,446.12,368,456z M272,421.488
		c-2.513,1.112-8.216,2.512-16,2.512s-13.488-1.399-16-2.512V376h32V421.488z M24,360v-32h464v32H24z"/>
	<path d="M208,336h96v16h-96V336z"/>
	<path d="M76.82,170.427l12.382-4.058c0.993,1.29,2.063,2.526,3.182,3.704l-5.888,11.629c-0.621,1.227-0.727,2.642-0.301,3.943
		c0.426,1.301,1.352,2.384,2.576,3l18.437,9.339c1.226,0.621,2.636,0.729,3.942,0.301c1.306-0.428,2.384-1.351,3-2.576l5.884-11.627
		c1.613,0.211,3.24,0.331,4.874,0.371l4.057,12.382c0.889,2.71,3.803,4.19,6.519,3.301l19.64-6.436
		c2.715-0.89,4.188-3.809,3.301-6.519l-4.058-12.382c1.294-0.995,2.533-2.059,3.708-3.183l11.624,5.89
		c2.444,1.238,5.705,0.169,6.943-2.275l9.333-18.439c0.62-1.225,0.728-2.642,0.301-3.942c-0.427-1.301-1.353-2.384-2.576-3
		l-11.63-5.888c0.212-1.614,0.336-3.242,0.373-4.869l12.393-4.061c2.715-0.89,4.189-3.809,3.301-6.519l-6.436-19.64
		c-0.888-2.71-3.804-4.19-6.519-3.3l-12.383,4.058c-0.994-1.29-2.062-2.526-3.182-3.704l5.889-11.629
		c0.62-1.226,0.728-2.642,0.302-3.943c-0.427-1.3-1.353-2.383-2.577-2.999l-18.437-9.34c-2.549-1.29-5.651-0.273-6.942,2.275
		l-5.89,11.625c-1.612-0.206-3.235-0.332-4.867-0.368l-4.058-12.383c-0.888-2.71-3.804-4.19-6.519-3.301l-19.638,6.436
		c-2.715,0.89-4.189,3.809-3.301,6.519l4.058,12.383c-1.294,0.995-2.528,2.057-3.706,3.177l-11.627-5.884
		c-2.548-1.291-5.652-0.273-6.943,2.275l-9.333,18.44c-0.62,1.226-0.727,2.642-0.301,3.942s1.352,2.384,2.576,3l11.629,5.889
		c-0.21,1.613-0.335,3.241-0.373,4.869l-12.392,4.061c-2.715,0.89-4.189,3.809-3.301,6.519l6.436,19.64
		C71.189,169.837,74.105,171.317,76.82,170.427z M75.294,149.179l11.105-3.639c2.239-0.734,3.698-2.886,3.546-5.24
		c-0.215-3.376,0.042-6.756,0.767-10.038c0.501-2.301-0.612-4.655-2.711-5.718l-10.429-5.276l4.666-9.222l10.428,5.276
		c2.106,1.066,4.668,0.575,6.219-1.201c2.213-2.519,4.781-4.72,7.635-6.547c1.982-1.269,2.859-3.72,2.125-5.959l-3.64-11.106
		l9.82-3.218l3.639,11.106c0.734,2.239,2.891,3.696,5.24,3.545c3.381-0.216,6.754,0.039,10.03,0.759
		c2.298,0.508,4.661-0.608,5.723-2.712l5.282-10.425l9.219,4.672l-5.282,10.425c-1.063,2.099-0.572,4.657,1.198,6.213
		c2.526,2.217,4.733,4.789,6.559,7.637c1.27,1.982,3.721,2.858,5.96,2.125l11.096-3.636l3.218,9.819l-11.105,3.64
		c-2.238,0.733-3.698,2.886-3.547,5.24c0.216,3.376-0.042,6.756-0.766,10.038c-0.502,2.301,0.612,4.655,2.711,5.717l10.429,5.276
		l-4.667,9.223l-10.43-5.281c-2.096-1.07-4.66-0.566-6.218,1.2c-2.213,2.519-4.775,4.724-7.633,6.552
		c-1.979,1.263-2.854,3.718-2.12,5.958l3.639,11.105l-9.819,3.218l-3.64-11.105c-0.733-2.239-2.892-3.696-5.239-3.546
		c-3.387,0.218-6.756-0.042-10.032-0.763c-2.296-0.504-4.656,0.607-5.722,2.712l-5.281,10.43l-9.22-4.672l5.283-10.425
		c1.063-2.099,0.572-4.657-1.198-6.213c-2.527-2.217-4.733-4.789-6.559-7.638c-1.271-1.986-3.716-2.86-5.955-2.126l-11.105,3.64
		L75.294,149.179z"/>
	<path d="M134.045,162.549c13.535-4.436,20.939-19.057,16.504-32.593c-4.436-13.536-19.058-20.94-32.594-16.504
		c-13.537,4.436-20.94,19.058-16.504,32.594C105.887,159.581,120.508,166.985,134.045,162.549z M121.174,123.27
		c8.12-2.661,16.895,1.782,19.556,9.903s-1.782,16.895-9.902,19.556c-8.121,2.661-16.895-1.782-19.557-9.903
		C108.61,134.706,113.052,125.932,121.174,123.27z"/>
</g>
<path d="M265.531,296.28h-23.168c-4.262,0-7.723-3.206-7.723-7.143v-35.716h-19.306c-1.56,0-2.974-0.871-3.568-2.206
	c-0.595-1.335-0.263-2.871,0.833-3.893l38.613-35.715c1.506-1.392,3.955-1.392,5.46,0l38.612,35.715
	c1.104,1.021,1.437,2.558,0.834,3.893c-0.602,1.335-2,2.206-3.56,2.206h-19.307v35.716
	C273.253,293.074,269.792,296.28,265.531,296.28z M224.656,246.281h13.847c2.13,0,3.86,1.598,3.86,3.57v39.286h23.168v-39.286
	c0-1.973,1.73-3.57,3.86-3.57h13.848l-29.292-27.095L224.656,246.281z"/>
<path d="M196.036,265.209c-0.146,0-0.287-0.007-0.441-0.021c-19.561-2.007-34.318-17.264-34.318-35.479
	c0-18.872,15.901-34.365,35.957-35.629c5.343-24.686,29.167-42.943,56.713-42.943c21.631,0,41.555,11.272,51.378,28.886
	c23.339,2.265,41.294,20.558,41.294,42.543c0,19.144-13.871,36.073-33.717,41.159c-2.069,0.521-4.187-0.593-4.751-2.493
	c-0.571-1.899,0.633-3.872,2.688-4.393c16.519-4.229,28.055-18.329,28.055-34.273c0-18.908-15.932-34.536-36.271-35.578
	c-1.431-0.072-2.688-0.865-3.292-2.058c-8.171-16.187-25.979-26.65-45.385-26.65c-24.828,0-46.158,17.107-49.617,39.786
	c-0.27,1.757-1.899,3.072-3.823,3.072c-17.653,0-31.507,12.814-31.507,28.572c0,14.572,11.799,26.772,27.46,28.378
	c2.117,0.223,3.646,1.986,3.406,3.944C199.649,263.859,197.973,265.209,196.036,265.209L196.036,265.209z"/>
<g>
	<path d="M367.7,197.079c-16.314-4.864-29.759-15.79-37.855-30.767c-8.098-14.976-9.877-32.208-5.013-48.523
		c4.864-16.314,15.791-29.759,30.767-37.855c14.976-8.097,32.209-9.877,48.523-5.013s29.759,15.791,37.855,30.767
		c8.097,14.976,9.877,32.208,5.013,48.523c-4.864,16.314-15.79,29.759-30.767,37.855C401.248,200.164,384.015,201.943,367.7,197.079
		z M401.846,82.555c-29.47-8.786-60.593,8.042-69.379,37.51c-8.787,29.47,8.04,60.593,37.51,69.379
		c29.469,8.786,60.593-8.04,69.379-37.51C448.142,122.465,431.315,91.342,401.846,82.555z"/>
	<path d="M387.049,132.182c-5.262-1.569-8.267-7.126-6.698-12.389c1.569-5.262,7.127-8.268,12.39-6.698
		c5.263,1.569,8.268,7.127,6.698,12.389c-0.629,2.108,0.57,4.327,2.68,4.956c2.108,0.628,4.326-0.571,4.955-2.679
		c2.433-8.16-1.247-16.71-8.368-20.729l1.267-4.25c0.629-2.108-0.57-4.327-2.679-4.956s-4.327,0.571-4.956,2.679l-1.267,4.25
		c-8.159-0.537-15.921,4.603-18.354,12.762c-2.824,9.472,2.584,19.476,12.057,22.3c5.263,1.569,8.268,7.127,6.699,12.389
		c-1.569,5.263-7.127,8.268-12.39,6.699c-5.263-1.569-8.268-7.127-6.698-12.39c0.628-2.108-0.571-4.327-2.68-4.956
		c-2.108-0.628-4.326,0.571-4.955,2.679c-2.433,8.16,1.247,16.71,8.368,20.729l-1.267,4.25c-0.629,2.108,0.57,4.327,2.679,4.956
		c2.108,0.628,4.327-0.571,4.956-2.68l1.267-4.25c8.159,0.537,15.921-4.602,18.354-12.762
		C401.931,145.01,396.523,135.007,387.049,132.182z"/>
</g>
</svg>
