<?xml version="1.0" encoding="utf-8"?>
<!-- Generator: Adobe Illustrator 16.0.0, SVG Export Plug-In . SVG Version: 6.00 Build 0)  -->
<!DOCTYPE svg PUBLIC "-//W3C//DTD SVG 1.1//EN" "http://www.w3.org/Graphics/SVG/1.1/DTD/svg11.dtd">
<svg version="1.1" id="Layer_1" xmlns="http://www.w3.org/2000/svg" xmlns:xlink="http://www.w3.org/1999/xlink" x="0px" y="0px"
	 width="512px" height="512px" viewBox="0 0 512 512" enable-background="new 0 0 512 512" xml:space="preserve">
<path d="M296,432h-16V353.6c0-4.419-3.582-8-8-8c-4.419,0-8,3.581-8,8V432H56V272h66.56c4.418,0,8-3.581,8-8c0-4.418-3.582-8-8-8H48
	c-4.419,0-8,3.582-8,8v168H24c-4.419,0-8,3.582-8,8v16c0,22.092,17.908,40,40,40h208c22.091,0,40-17.908,40-40v-16
	C304,435.582,300.418,432,296,432z M288,456c0,13.255-10.745,24-24,24h-16v-8c0-4.418-3.582-8-8-8c-4.419,0-8,3.582-8,8v8H88v-8
	c0-4.418-3.582-8-8-8c-4.419,0-8,3.582-8,8v8H56c-13.255,0-24-10.745-24-24v-8h256V456z"/>
<path d="M432,64h16c4.418,0,8-3.581,8-8c0-4.418-3.582-8-8-8h-16c-13.255,0-24,10.745-24,24v8h-8c-4.419,0-8,3.582-8,8
	c0,4.419,3.581,8,8,8h8v24c0,4.419,3.581,8,8,8c4.418,0,8-3.581,8-8V96h8c4.418,0,8-3.581,8-8c0-4.418-3.582-8-8-8h-8v-8
	C424,67.582,427.581,64,432,64z"/>
<path d="M472,16h-96c-13.255,0-24,10.745-24,24v16c0,4.419,3.581,8,8,8c4.418,0,8-3.581,8-8V40c0-4.418,3.581-8,8-8h96
	c4.418,0,8,3.582,8,8v96c0,4.419-3.582,8-8,8h-96c-4.419,0-8-3.581-8-8V88c0-4.418-3.582-8-8-8c-4.419,0-8,3.582-8,8v48
	c0,13.255,10.745,24,24,24h96c13.254,0,24-10.745,24-24V40C496,26.745,485.254,16,472,16z"/>
<path d="M395,342c0,17.674,14.326,32,32,32c17.673,0,32-14.326,32-32c0-17.673-14.327-32-32-32C409.326,310,395,324.327,395,342z
	 M443,342c0,8.837-7.164,16-16,16c-8.837,0-16-7.163-16-16c0-8.836,7.163-16,16-16C435.836,326,443,333.164,443,342z"/>
<path d="M475,270h-96c-13.255,0-24,10.745-24,24v96c0,13.255,10.745,24,24,24h96c13.254,0,24-10.745,24-24v-16c0-4.418-3.582-8-8-8
	c-4.419,0-8,3.582-8,8v16c0,4.419-3.582,8-8,8h-96c-4.419,0-8-3.581-8-8v-96c0-4.418,3.581-8,8-8h96c4.418,0,8,3.582,8,8v48
	c0,4.419,3.581,8,8,8c4.418,0,8-3.581,8-8v-48C499,280.745,488.254,270,475,270z"/>
<path d="M296,184c2.518,0,4.889-1.186,6.399-3.2l24-32c2.648-3.536,1.927-8.55-1.609-11.198c-3.533-2.645-8.54-1.93-11.19,1.599
	l-24,32c-2.65,3.535-1.935,8.549,1.601,11.2C292.585,183.438,294.269,184,296,184z"/>
<path d="M313.6,212.8c1.511,2.015,3.882,3.2,6.4,3.2c1.73,0,3.415-0.562,4.8-1.6l32-24c3.534-2.651,4.251-7.665,1.6-11.2
	c-2.651-3.534-7.665-4.251-11.2-1.6l-32,24C311.665,204.251,310.948,209.265,313.6,212.8L313.6,212.8z"/>
<path d="M392,230.4c-0.78-4.349-4.938-7.242-9.287-6.463c-0.104,0.019-0.209,0.04-0.313,0.063l-40,8
	c-4.418,0.442-7.642,4.382-7.2,8.8c0.442,4.419,4.382,7.643,8.801,7.2h1.6l40-8c4.349-0.779,7.242-4.937,6.463-9.286
	C392.043,230.609,392.023,230.505,392,230.4z"/>
<path d="M118,173h96c4.418,0,8-3.581,8-8V37c0-4.418-3.582-8-8-8h-96c-4.419,0-8,3.582-8,8v128C110,169.419,113.581,173,118,173z
	 M126,45h80v112h-80V45z"/>
<path d="M182,61h-16c-4.419,0-8,3.582-8,8c0,4.419,3.581,8,8,8h16c4.418,0,8-3.581,8-8C190,64.582,186.418,61,182,61z"/>
<path d="M182,93h-32c-4.419,0-8,3.582-8,8c0,4.419,3.581,8,8,8h32c4.418,0,8-3.581,8-8C190,96.582,186.418,93,182,93z"/>
<path d="M182,125h-32c-4.419,0-8,3.582-8,8c0,4.419,3.581,8,8,8h32c4.418,0,8-3.581,8-8C190,128.582,186.418,125,182,125z"/>
<path d="M288.96,229.6c-2.209-3.844-7.116-5.17-10.96-2.96c-3.844,2.209-5.169,7.116-2.96,10.96l35.279,61.04l-128,48
	c0,0,0,0-0.56,0h-0.64l-20.801,12l-13.84,8c-3.68,2.127-8.055,2.703-12.16,1.6c-4.083-1.103-7.563-3.778-9.68-7.44l-16-27.68
	c-3.907-7.518-1.276-16.779,6-21.12l27.68-16l20,34.641c1.436,2.484,4.091,4.011,6.96,4c4.419,0.018,8.015-3.55,8.032-7.969
	c0.006-1.415-0.364-2.806-1.072-4.031L155.6,286.96l100.4-82.8l3.279,5.68c2.21,3.845,7.116,5.17,10.96,2.961
	c3.845-2.21,5.17-7.116,2.961-10.961l-8-13.84c-1.188-2.028-3.206-3.433-5.521-3.84c-2.327-0.438-4.729,0.177-6.56,1.68l-112,92.32
	l-34.08,19.68c-12.578,7.326-18.627,22.219-14.721,36.24l-8,4.561c-11.494,6.601-15.461,21.27-8.86,32.764
	c3.183,5.543,8.445,9.587,14.621,11.236c2.035,0.539,4.134,0.808,6.239,0.8c4.209-0.018,8.342-1.12,12-3.2l8-4.56
	c3.844,3.97,8.677,6.842,14,8.319c2.734,0.765,5.562,1.142,8.4,1.12c5.623,0.013,11.147-1.479,16-4.32l6.96-4l16,27.761
	c6.62,11.445,21.251,15.381,32.72,8.8c11.485-6.617,15.431-21.292,8.813-32.777c-0.004-0.008-0.009-0.015-0.013-0.022L204.64,355.2
	l120-45.04c2.202-0.828,3.929-2.584,4.72-4.8c0.788-2.189,0.584-4.613-0.56-6.64L288.96,229.6z M100,366.32
	c-1.84,1.063-4.027,1.352-6.08,0.8c-2.05-0.532-3.805-1.855-4.88-3.68c-1.064-1.84-1.352-4.027-0.801-6.08
	c0.552-2.063,1.906-3.82,3.761-4.88l6.96-4l8,13.84L100,366.32z M205.28,388.72c1.064,1.84,1.352,4.027,0.801,6.079
	c-0.571,2.034-1.923,3.76-3.761,4.801c-3.803,2.185-8.655,0.899-10.88-2.88l-16-27.761l13.28-7.6h0.64L205.28,388.72z"/>
</svg>
